<svg xmlns="http://www.w3.org/2000/svg" xmlns:xlink="http://www.w3.org/1999/xlink" version="1.1" width="256" height="256" viewBox="0 0 256 256" xml:space="preserve">

<defs>
</defs>
<g style="stroke: none; stroke-width: 0; stroke-dasharray: none; stroke-linecap: butt; stroke-linejoin: miter; stroke-miterlimit: 10; fill: none; fill-rule: nonzero; opacity: 1;" transform="translate(1.4065934065934016 1.4065934065934016) scale(2.81 2.81)" >
	<linearGradient id="SVGID_1" gradientUnits="userSpaceOnUse" x1="45" y1="90" x2="45" y2="-1.818989e-12">
<stop offset="0%" style="stop-color:rgb(89,181,220);stop-opacity: 1"/>
<stop offset="100%" style="stop-color:rgb(247,111,170);stop-opacity: 1"/>
</linearGradient>
<path d="M 86.72 21.158 c -0.006 -0.026 -0.01 -0.052 -0.017 -0.078 c -0.058 -0.215 -0.143 -0.42 -0.246 -0.616 c -0.017 -0.032 -0.033 -0.063 -0.05 -0.095 c -0.109 -0.189 -0.237 -0.365 -0.385 -0.527 c -0.025 -0.027 -0.05 -0.053 -0.076 -0.079 c -0.156 -0.159 -0.327 -0.302 -0.518 -0.424 c -0.01 -0.006 -0.017 -0.015 -0.026 -0.022 c -0.017 -0.011 -0.037 -0.015 -0.055 -0.025 c -0.074 -0.044 -0.146 -0.092 -0.225 -0.13 L 46.312 0.302 c -0.828 -0.402 -1.795 -0.402 -2.623 0 L 4.878 19.163 c -0.079 0.038 -0.151 0.085 -0.225 0.13 c -0.018 0.011 -0.038 0.015 -0.056 0.026 c -0.01 0.006 -0.017 0.015 -0.027 0.022 c -0.19 0.122 -0.361 0.265 -0.516 0.423 c -0.026 0.027 -0.052 0.053 -0.077 0.08 c -0.147 0.161 -0.275 0.336 -0.384 0.525 c -0.018 0.032 -0.034 0.064 -0.052 0.097 c -0.103 0.195 -0.188 0.399 -0.246 0.614 c -0.007 0.026 -0.011 0.053 -0.017 0.079 c -0.055 0.228 -0.09 0.462 -0.09 0.703 v 46.277 c 0 1.148 0.656 2.196 1.688 2.698 l 38.811 18.861 c 0.02 0.01 0.043 0.013 0.063 0.022 c 0.144 0.066 0.295 0.115 0.45 0.158 c 0.053 0.015 0.104 0.037 0.157 0.049 C 44.566 89.973 44.779 90 45 90 c 0.221 0 0.435 -0.027 0.642 -0.072 c 0.053 -0.012 0.103 -0.034 0.155 -0.048 c 0.156 -0.043 0.308 -0.093 0.452 -0.159 c 0.02 -0.009 0.042 -0.012 0.062 -0.022 l 38.811 -18.861 c 1.033 -0.502 1.688 -1.55 1.688 -2.698 V 21.861 C 86.811 21.62 86.776 21.386 86.72 21.158 z M 45 6.335 l 31.947 15.526 L 45 37.387 L 13.053 21.861 L 45 6.335 z M 9.189 26.655 L 42 42.6 v 39.606 L 9.189 66.261 V 26.655 z M 48 82.206 V 42.6 l 32.811 -15.945 v 39.606 L 48 82.206 z" style="stroke: none; stroke-width: 1; stroke-dasharray: none; stroke-linecap: butt; stroke-linejoin: miter; stroke-miterlimit: 10; fill: url(#SVGID_1); fill-rule: nonzero; opacity: 1;" transform=" matrix(1 0 0 1 0 0) " stroke-linecap="round" />
</g>
</svg>